<svg width="204" height="36" viewBox="0 0 204 36" fill="none" xmlns="http://www.w3.org/2000/svg">
<rect x="0.5" y="0.5" width="203" height="35" rx="14.5" stroke="white"/>
<path d="M39.96 15.504C39.96 16.496 39.288 17.296 37.928 17.296C36.568 17.296 35.912 16.496 35.912 15.504C35.912 14.512 36.568 13.712 37.928 13.712C39.288 13.712 39.96 14.512 39.96 15.504ZM40.328 20.752C40.328 21.776 39.752 22.736 37.912 22.736C36.072 22.736 35.512 21.776 35.512 20.752C35.512 19.728 36.072 18.768 37.912 18.768C39.752 18.768 40.328 19.728 40.328 20.752ZM37.912 24.224C40.984 24.224 42.024 22.464 42.024 20.896C42.024 19.52 41.176 18.416 39.848 18C40.952 17.52 41.624 16.688 41.624 15.264C41.624 13.44 39.944 12.224 37.912 12.224C35.88 12.224 34.216 13.44 34.216 15.264C34.216 16.688 34.888 17.52 35.992 18C34.664 18.416 33.816 19.52 33.816 20.896C33.816 22.464 34.84 24.224 37.912 24.224ZM49.506 18.448C49.506 15.776 50.178 13.632 52.866 11.728L52.226 10.848C49.186 12.736 47.97 15.472 47.97 18.448C47.97 21.424 49.186 24.16 52.226 26.048L52.866 25.168C50.178 23.264 49.506 21.12 49.506 18.448ZM57.7758 12.448C57.5038 15.408 56.1598 17.6 53.8558 20.048V21.536H59.0238V24H60.7198V21.536H62.5758V20.048H60.7198V16.512L59.0238 16.992V20.048H55.4557C58.0158 17.728 58.9758 15.376 59.4718 12.448H57.7758ZM64.0035 16.224C64.0035 18.032 64.9955 19.936 67.4915 19.936C68.7395 19.936 69.6675 19.728 70.5155 19.216C70.5155 20.848 69.9235 22.736 67.9555 22.736C66.8355 22.736 66.0835 22.208 65.9235 20.88L64.2275 21.04C64.3875 22.624 65.1395 24.224 67.9555 24.224C71.2195 24.224 72.2115 21.264 72.2115 17.744C72.2115 14.288 71.3475 12.224 67.9395 12.224C65.6835 12.224 64.0035 13.968 64.0035 16.224ZM67.9395 13.728C69.4915 13.728 70.5475 14.512 70.5475 16.896C70.5475 17.12 70.5475 17.376 70.5155 17.664C69.9395 18.176 68.9475 18.48 67.9235 18.48C66.3075 18.48 65.6995 17.536 65.6995 16.224C65.6995 14.72 66.4515 13.728 67.9395 13.728ZM76.4873 13.936H81.3353V12.448H75.2873L74.4713 17.968L75.4473 18.816C76.0873 18.16 77.0153 17.808 77.8313 17.808C79.5753 17.808 80.3593 18.896 80.3593 20.272C80.3593 21.584 79.7513 22.736 77.9753 22.736C76.7113 22.736 75.6553 22.032 75.5433 20.784L73.8473 20.992C73.8473 23.344 76.1193 24.224 77.9753 24.224C80.5033 24.224 82.0553 22.32 82.0553 20.272C82.0553 17.824 80.5193 16.336 77.8953 16.336C77.3833 16.336 76.6153 16.464 76.0873 16.704L76.4873 13.936ZM86.715 18.448C86.715 21.12 86.043 23.264 83.355 25.168L83.995 26.048C87.035 24.16 88.251 21.424 88.251 18.448C88.251 15.472 87.035 12.736 83.995 10.848L83.355 11.728C86.043 13.632 86.715 15.776 86.715 18.448ZM99.231 12.224H98.191C97.871 13.12 97.599 13.616 95.119 13.616V14.72H97.535V22.512H94.959V24H101.631V22.512H99.231V12.224ZM106.675 13.936H111.523V12.448H105.475L104.659 17.968L105.635 18.816C106.275 18.16 107.203 17.808 108.019 17.808C109.763 17.808 110.547 18.896 110.547 20.272C110.547 21.584 109.939 22.736 108.163 22.736C106.899 22.736 105.843 22.032 105.731 20.784L104.035 20.992C104.035 23.344 106.307 24.224 108.163 24.224C110.691 24.224 112.243 22.32 112.243 20.272C112.243 17.824 110.707 16.336 108.083 16.336C107.571 16.336 106.803 16.464 106.275 16.704L106.675 13.936ZM122.087 20.224C122.087 18.416 121.095 16.512 118.599 16.512C117.351 16.512 116.423 16.72 115.575 17.232C115.575 15.6 116.167 13.712 118.135 13.712C119.255 13.712 120.007 14.24 120.167 15.568L121.863 15.408C121.703 13.824 120.951 12.224 118.135 12.224C114.871 12.224 113.879 15.184 113.879 18.704C113.879 22.16 114.743 24.224 118.151 24.224C120.407 24.224 122.087 22.48 122.087 20.224ZM118.151 22.72C116.599 22.72 115.543 21.936 115.543 19.552C115.543 19.328 115.543 19.072 115.575 18.784C116.151 18.272 117.143 17.968 118.167 17.968C119.783 17.968 120.391 18.912 120.391 20.224C120.391 21.728 119.639 22.72 118.151 22.72ZM128.874 20.48V19.04H123.946V20.48H128.874ZM133.57 18.4C134.018 18.176 134.498 18.064 134.946 18.064C136.21 18.064 137.266 18.816 137.266 20.336C137.266 21.648 136.514 22.736 134.898 22.736C133.474 22.736 132.546 22.032 132.434 20.784L130.738 20.992C130.738 23.344 133.042 24.224 134.898 24.224C137.426 24.224 138.962 22.384 138.962 20.336C138.962 18.416 137.634 16.624 135.49 16.624H135.314L138.402 13.536V12.448H130.978V13.936H136.034L132.674 17.424L133.57 18.4ZM140.597 16.224C140.597 18.032 141.589 19.936 144.085 19.936C145.333 19.936 146.261 19.728 147.109 19.216C147.109 20.848 146.517 22.736 144.549 22.736C143.429 22.736 142.677 22.208 142.517 20.88L140.821 21.04C140.981 22.624 141.733 24.224 144.549 24.224C147.813 24.224 148.805 21.264 148.805 17.744C148.805 14.288 147.941 12.224 144.533 12.224C142.277 12.224 140.597 13.968 140.597 16.224ZM144.533 13.728C146.085 13.728 147.141 14.512 147.141 16.896C147.141 17.12 147.141 17.376 147.109 17.664C146.533 18.176 145.541 18.48 144.517 18.48C142.901 18.48 142.293 17.536 142.293 16.224C142.293 14.72 143.045 13.728 144.533 13.728ZM155.593 20.48V19.04H150.665V20.48H155.593ZM162.497 12.224H161.457C161.137 13.12 160.865 13.616 158.385 13.616V14.72H160.801V22.512H158.225V24H164.897V22.512H162.497V12.224ZM172.34 12.224H171.3C170.98 13.12 170.708 13.616 168.228 13.616V14.72H170.644V22.512H168.068V24H174.74V22.512H172.34V12.224Z" fill="white"/>
</svg>
