<svg width="36" height="36" viewBox="0 0 36 36" fill="none" xmlns="http://www.w3.org/2000/svg">
<circle cx="18" cy="18" r="17.5" stroke="white"/>
<path d="M21.5608 11.9131V11.9117H21.4608H15.5115C13.52 11.9117 11.9 13.5321 11.9 15.5241V21.4751C11.9 23.4669 13.52 25.0874 15.5115 25.0874H21.4609C23.4523 25.0874 25.0723 23.4669 25.0723 21.4751V15.5241C25.0723 13.5656 23.5063 11.9662 21.5608 11.9131ZM24.1118 21.4751C24.1118 22.9371 22.9225 24.1267 21.4608 24.1267H15.5115C14.0498 24.1267 12.8605 22.9371 12.8605 21.4751V15.5241C12.8605 14.062 14.0498 12.8724 15.5115 12.8724H21.4609C22.9225 12.8724 24.1118 14.062 24.1118 15.5241V21.4751Z" fill="white" stroke="white" stroke-width="0.2"/>
<path d="M18.4865 14.8512C16.4753 14.8512 14.8395 16.4875 14.8395 18.4991C14.8395 20.5107 16.4753 22.147 18.4865 22.147C20.4976 22.147 22.1334 20.5107 22.1334 18.4991C22.1334 16.4875 20.4976 14.8512 18.4865 14.8512ZM18.4865 21.1863C17.0053 21.1863 15.7999 19.9808 15.7999 18.4991C15.7999 17.0175 17.0053 15.8119 18.4865 15.8119C19.9677 15.8119 21.173 17.0175 21.173 18.4991C21.173 19.9808 19.9677 21.1863 18.4865 21.1863Z" fill="white" stroke="white" stroke-width="0.2"/>
<path d="M22.1184 13.6914C21.5404 13.6914 21.0703 14.1616 21.0703 14.7395C21.0703 15.3175 21.5404 15.7877 22.1184 15.7877C22.6964 15.7877 23.1666 15.3175 23.1666 14.7395C23.1666 14.1615 22.6964 13.6914 22.1184 13.6914ZM22.1184 15.0271C21.9599 15.0271 21.8308 14.8981 21.8308 14.7395C21.8308 14.5809 21.9599 14.4519 22.1184 14.4519C22.2771 14.4519 22.4061 14.5809 22.4061 14.7395C22.4061 14.8981 22.2771 15.0271 22.1184 15.0271Z" fill="white"/>
</svg>
